:FULLY-SPECIFIED
:FORCE-ALL-JOINTS-BE-3DOF
:DEGREES
306
root -0.0186063 15.3761 -36.0729 10.8431 57.7912 4.46006
lfemur -21.074 20.7438 -14.3229
ltibia 66.3096 -0 0
lfoot -27.2661 30.0732 0.0457273
ltoes 4.78741 -0 0
rfemur -36.3496 -10.7154 9.38499
rtibia 46.3422 -0 0
rfoot -1.94231 -9.43331 3.12504
rtoes -10.924 0 0
lowerback 14.4701 1.27022 -0.800728
upperback -2.71881 1.91683 2.75138
thorax -10.9986 1.04751 3.00888
lowerneck -5.98217 4.61262 1.11854
upperneck 6.0424 6.57984 -6.06962
head 3.47773 3.07264 -1.69889
lclavicle 2.79541e-15 -7.95139e-15 0
lhumerus -26.2961 -32.0916 89.1242
lradius 111.131 -0 0
lwrist 43.1903 0 0
lhand -20.1554 49.2281 0.0548275
lfingers 7.12502 -0 0
lthumb 6.19016 79.1264 0.0537217
rclavicle 2.79541e-15 -7.95139e-15 0
rhumerus -7.91713 38.9141 -77.8692
rradius 86.4558 -0 0
rwrist -28.0928 0 0
rhand 25.9885 -24.1883 1.47592
rfingers 7.12502 -0 0
rthumb 49.3303 -39.0094 3.36009
307
root 0.112552 15.3605 -36.0234 11.3026 59.6873 5.4669
lfemur -19.8631 19.6622 -14.3044
ltibia 65.3586 -0 0
lfoot -27.3803 29.9407 0.044943
ltoes 3.93089 -0 0
rfemur -36.673 -9.8959 8.7974
rtibia 45.3331 -0 0
rfoot -0.442585 -8.60837 3.1807
rtoes -9.33036 0 0
lowerback 14.5345 1.23339 -1.27849
upperback -2.63994 1.77293 2.70926
thorax -10.9485 1.0062 3.26635
lowerneck -6.04077 4.12719 0.787306
upperneck 6.15338 5.93917 -5.74942
head 3.49971 2.75593 -1.57978
lclavicle 2.79541e-15 -7.95139e-15 0
lhumerus -27.3581 -32.5136 90.798
lradius 110.41 -0 0
lwrist 43.7634 0 0
lhand -20.3278 48.7538 0.0632424
lfingers 7.12502 -0 0
lthumb 6.0237 78.6569 0.0619222
rclavicle 2.79541e-15 -7.95139e-15 0
rhumerus -5.05411 37.9325 -76.7642
rradius 84.7874 -0 0
rwrist -26.5391 0 0
rhand 24.2773 -24.6168 1.51906
rfingers 7.12502 -0 0
rthumb 47.7376 -40.1789 3.49027
308
root 0.243711 15.3449 -35.9739 11.859 61.5794 6.56839
lfemur -18.6475 18.5659 -14.306
ltibia 64.3897 -0 0
lfoot -27.4933 29.7992 0.0436613
ltoes 3.05984 -0 0
rfemur -37.0082 -9.07571 8.20455
rtibia 44.3278 -0 0
rfoot 1.05426 -7.76953 3.21176
rtoes -7.72426 0 0
lowerback 14.5963 1.19808 -1.76111
upperback -2.56074 1.62937 2.66536
thorax -10.8971 0.965032 3.52484
lowerneck -6.0957 3.63351 0.451147
upperneck 6.26205 5.28728 -5.42301
head 3.5212 2.43401 -1.45795
lclavicle 2.79541e-15 -7.95139e-15 0
lhumerus -28.4544 -32.8997 92.5009
lradius 109.656 -0 0
lwrist 44.3176 0 0
lhand -20.5019 48.2699 0.0705255
lfingers 7.12502 -0 0
lthumb 5.85562 78.1777 0.069037
rclavicle 2.79541e-15 -7.95139e-15 0
rhumerus -2.23596 36.8848 -75.7277
rradius 83.079 -0 0
rwrist -24.9571 0 0
rhand 22.5328 -25.0511 1.54962
rfingers 7.12502 -0 0
rthumb 46.1113 -41.3679 3.59002
309
root 0.374869 15.3292 -35.9245 12.5311 63.4622 7.78158
lfemur -17.4302 17.4592 -14.3278
ltibia 63.406 -0 0
lfoot -27.6044 29.6503 0.0418981
ltoes 2.17732 -0 0
rfemur -37.3554 -8.25845 7.60818
rtibia 43.331 -0 0
rfoot 2.5426 -6.92036 3.21778
rtoes -6.11149 0 0
lowerback 14.6554 1.16451 -2.24703
upperback -2.48145 1.48678 2.61977
thorax -10.8444 0.924202 3.78342
lowerneck -6.14648 3.1332 0.111155
upperneck 6.36768 4.62625 -5.09148
head 3.54202 2.10791 -1.3338
lclavicle 2.79541e-15 -7.95139e-15 0
lhumerus -29.581 -33.248 94.2258
lradius 108.875 -0 0
lwrist 44.8534 0 0
lhand -20.6765 47.7788 0.076544
lfingers 7.12502 -0 0
lthumb 5.68706 77.6914 0.0749371
rclavicle 2.79541e-15 -7.95139e-15 0
rhumerus 0.529442 35.7779 -74.7642
rradius 81.3369 -0 0
rwrist -23.3526 0 0
rhand 20.7619 -25.4894 1.56702
rfingers 7.12502 -0 0
rthumb 44.4583 -42.5711 3.65747
310
root 0.506028 15.3136 -35.875 13.3425 65.3303 9.12816
lfemur -16.2136 16.3465 -14.3697
ltibia 62.4107 -0 0
lfoot -27.7133 29.4957 0.039679
ltoes 1.2864 -0 0
rfemur -37.7145 -7.44769 7.01003
rtibia 42.3473 -0 0
rfoot 4.01676 -6.06445 3.19865
rtoes -4.49777 0 0
lowerback 14.7117 1.1329 -2.73464
upperback -2.40234 1.34581 2.57258
thorax -10.7908 0.883921 4.04112
lowerneck -6.19269 2.62788 -0.231598
upperneck 6.4696 3.95819 -4.75594
head 3.56204 1.77867 -1.20775
lclavicle 2.79541e-15 -7.95139e-15 0
lhumerus -30.7334 -33.5569 95.9654
lradius 108.071 -0 0
lwrist 45.3714 0 0
lhand -20.8504 47.2829 0.0811992
lfingers 7.12502 -0 0
lthumb 5.51919 77.2 0.0795255
rclavicle 2.79541e-15 -7.95139e-15 0
rhumerus 3.23564 34.6193 -73.8764
rradius 79.5678 -0 0
rwrist -21.7312 0 0
rhand 18.9715 -25.9298 1.57091
rfingers 7.12502 -0 0
rthumb 42.7856 -43.7832 3.69128
311
root 0.637186 15.298 -35.8255 14.3225 67.1776 10.6359
lfemur -15.0005 15.2322 -14.4314
ltibia 61.407 -0 0
lfoot -27.8194 29.3369 0.0370388
ltoes 0.390157 -0 0
rfemur -38.0853 -6.64699 6.4119
rtibia 41.3814 -0 0
rfoot 5.47109 -5.20536 3.1546
rtoes -2.88886 0 0
lowerback 14.7648 1.10345 -3.22238
upperback -2.32366 1.20711 2.52387
thorax -10.7364 0.844402 4.297
lowerneck -6.23391 2.11919 -0.576053
upperneck 6.56717 3.28522 -4.41743
head 3.58112 1.44735 -1.0802
lclavicle 2.79541e-15 -7.95139e-15 0
lhumerus -31.9067 -33.8251 97.7122
lradius 107.251 -0 0
lwrist 45.8721 0 0
lhand -21.0224 46.7843 0.0844268
lfingers 7.12502 -0 0
lthumb 5.35314 76.7059 0.0827385
rclavicle 2.79541e-15 -7.95139e-15 0
rhumerus 5.87748 33.4164 -73.0657
rradius 77.7779 -0 0
rwrist -20.0985 0 0
rhand 17.1685 -26.3705 1.56115
rfingers 7.12502 -0 0
rthumb 41.1005 -44.9987 3.69069
312
root 0.768345 15.2824 -35.776 15.5087 68.9978 12.3407
lfemur -13.7932 14.1207 -14.5121
ltibia 60.3979 -0 0
lfoot -27.9222 29.1757 0.0340219
ltoes -0.508338 0 0
rfemur -38.4677 -5.85986 5.81563
rtibia 40.438 -0 0
rfoot 6.89994 -4.34662 3.08619
rtoes -1.29048 0 0
lowerback 14.8147 1.07635 -3.70866
upperback -2.24567 1.07132 2.47374
thorax -10.6815 0.805861 4.55011
lowerneck -6.26979 1.60876 -0.921163
upperneck 6.65984 2.60947 -4.07699
head 3.59911 1.11497 -0.951576
lclavicle 2.79541e-15 -7.95139e-15 0
lhumerus -33.0958 -34.0519 99.4583
lradius 106.42 -0 0
lwrist 46.3559 0 0
lhand -21.1913 46.2855 0.0861974
lfingers 7.12502 -0 0
lthumb 5.19008 76.2114 0.0845454
rclavicle 2.79541e-15 -7.95139e-15 0
rhumerus 8.45091 32.1773 -72.3321
rradius 75.9738 -0 0
rwrist -18.4603 0 0
rhand 15.3599 -26.8096 1.53777
rfingers 7.12502 -0 0
rthumb 39.4101 -46.2123 3.65548
313
root 0.899503 15.2668 -35.7265 16.9496 70.7837 14.2894
lfemur -12.5944 13.0163 -14.6108
ltibia 59.3866 -0 0
lfoot -28.0213 29.0135 0.0306816
ltoes -1.40602 0 0
rfemur -38.8612 -5.0898 5.22309
rtibia 39.5216 -0 0
rfoot 8.29769 -3.49169 2.99429
rtoes 0.291616 -0 0
lowerback 14.8612 1.0518 -4.19189
upperback -2.16863 0.939079 2.42227
thorax -10.6263 0.768518 4.79951
lowerneck -6.3 1.09825 -1.26589
upperneck 6.74705 1.93309 -3.73562
head 3.6159 0.7826 -0.822267
lclavicle 2.79541e-15 -7.95139e-15 0
lhumerus -34.2956 -34.2368 101.196
lradius 105.583 -0 0
lwrist 46.8234 0 0
lhand -21.3559 45.7887 0.086516
lfingers 7.12502 -0 0
lthumb 5.03115 75.7187 0.0849485
rclavicle 2.79541e-15 -7.95139e-15 0
rhumerus 10.9528 30.9098 -71.6742
rradius 74.1618 -0 0
rwrist -16.8221 0 0
rhand 13.5526 -27.2453 1.50105
rfingers 7.12502 -0 0
rthumb 37.7215 -47.4184 3.58601
314
root 1.03066 15.2512 -35.6771 18.7086 72.5273 16.5436
lfemur -11.4066 11.9233 -14.7265
ltibia 58.3763 -0 0
lfoot -28.1162 28.8522 0.0270802
ltoes -2.29981 0 0
rfemur -39.2654 -4.34026 4.63624
rtibia 38.6369 -0 0
rfoot 9.65876 -2.64393 2.8801
rtoes 1.8517 -0 0
lowerback 14.904 1.03 -4.6705
upperback -2.09281 0.811033 2.36958
thorax -10.5709 0.732598 5.04425
lowerneck -6.32426 0.589288 -1.60921
upperneck 6.82835 1.25822 -3.3943
head 3.63138 0.451272 -0.692679
lclavicle 2.79541e-15 -7.95139e-15 0
lhumerus -35.5006 -34.38 102.916
lradius 104.746 -0 0
lwrist 47.275 0 0
lhand -21.5151 45.2963 0.0854213
lfingers 7.12502 -0 0
lthumb 4.87752 75.2301 0.0839823
rclavicle 2.79541e-15 -7.95139e-15 0
rhumerus 13.3806 29.6219 -71.09
rradius 72.3485 -0 0
rwrist -15.1896 0 0
rhand 11.7534 -27.6757 1.45145
rfingers 7.12502 -0 0
rthumb 36.0418 -48.6117 3.48322
315
root 1.16182 15.2356 -35.6276 20.8692 74.2191 19.1854
lfemur -10.2322 10.846 -14.8575
ltibia 57.37 -0 0
lfoot -28.2064 28.6932 0.0232875
ltoes -3.18664 0 0
rfemur -39.6796 -3.61466 4.0571
rtibia 37.7887 -0 0
rfoot 10.9776 -1.80663 2.7451
rtoes 3.38402 -0 0
lowerback 14.9429 1.01112 -5.1429
upperback -2.01846 0.687823 2.31576
thorax -10.5155 0.698328 5.28339
lowerneck -6.3423 0.0835398 -1.95009
upperneck 6.9033 0.587022 -3.05399
head 3.64545 0.122036 -0.563213
lclavicle 2.79541e-15 -7.95139e-15 0
lhumerus -36.7055 -34.4819 104.611
lradius 103.914 -0 0
lwrist 47.7114 0 0
lhand -21.6675 44.8105 0.0829841
lfingers 7.12502 -0 0
lthumb 4.73033 74.7479 0.081712
rclavicle 2.79541e-15 -7.95139e-15 0
rhumerus 15.7324 28.3215 -70.5765
rradius 70.5402 -0 0
rwrist -13.5684 0 0
rhand 9.9693 -28.0991 1.38965
rfingers 7.12502 -0 0
rthumb 34.3781 -49.7868 3.3486
316
root 1.29298 15.22 -35.5781 23.543 75.8479 22.3246
lfemur -9.07391 9.78844 -15.0023
ltibia 56.3709 -0 0
lfoot -28.2914 28.5383 0.0193811
ltoes -4.06344 0 0
rfemur -40.1032 -2.91636 3.48774
rtibia 36.9814 -0 0
rfoot 12.2488 -0.982931 2.59105
rtoes 4.88285 -0 0
lowerback 14.9778 0.995335 -5.6075
upperback -1.94585 0.570088 2.2609
thorax -10.4604 0.665938 5.51598
lowerneck -6.35393 -0.417342 -2.28753
upperneck 6.97152 -0.0783346 -2.71566
head 3.658 -0.204061 -0.434266
lclavicle 2.79541e-15 -7.95139e-15 0
lhumerus -37.9049 -34.5436 106.273
lradius 103.092 -0 0
lwrist 48.1329 0 0
lhand -21.8121 44.3336 0.0793057
lfingers 7.12502 -0 0
lthumb 4.59074 74.2743 0.0782321
rclavicle 2.79541e-15 -7.95139e-15 0
rhumerus 18.0067 27.0163 -70.1299
rradius 68.7435 -0 0
rwrist -11.9642 0 0
rhand 8.20707 -28.5137 1.31651
rfingers 7.12502 -0 0
rthumb 32.7371 -50.9385 3.18419
317
root 1.42414 15.2044 -35.5286 26.8788 77.3995 26.1084
lfemur -7.93434 8.75481 -15.1589
ltibia 55.3822 -0 0
lfoot -28.3707 28.389 0.0154451
ltoes -4.92714 0 0
rfemur -40.5354 -2.24869 2.93035
rtibia 36.2199 -0 0
rfoot 13.4669 -0.175866 2.41997
rtoes 6.34245 -0 0
lowerback 15.0085 0.982834 -6.06274
upperback -1.87526 0.458468 2.20513
thorax -10.4058 0.635664 5.74108
lowerneck -6.35895 -0.911697 -2.6205
upperneck 7.03267 -0.735677 -2.38023
head 3.66897 -0.52597 -0.306236
lclavicle 2.79541e-15 -7.95139e-15 0
lhumerus -39.0936 -34.5663 107.893
lradius 102.287 -0 0
lwrist 48.5402 0 0
lhand -21.9476 43.868 0.0745156
lfingers 7.12502 -0 0
lthumb 4.4599 73.8117 0.073664
rclavicle 2.79541e-15 -7.95139e-15 0
rhumerus 20.2019 25.7139 -69.7459
rradius 66.9646 -0 0
rwrist -10.3826 0 0
rhand 6.47361 -28.9178 1.23309
rfingers 7.12502 -0 0
rthumb 31.1258 -52.062 2.99253
